<svg width="32" height="32" viewBox="0 0 32 32" fill="none" xmlns="http://www.w3.org/2000/svg">
<path d="M26.6667 13.3334L24.686 23.2368C24.4416 24.4586 24.3194 25.0695 24.0005 25.5264C23.7192 25.9294 23.332 26.2468 22.8818 26.4435C22.3711 26.6667 21.7481 26.6667 20.5022 26.6667H11.4978C10.2519 26.6667 9.62888 26.6667 9.11825 26.4435C8.66796 26.2468 8.2808 25.9294 7.99952 25.5264C7.68055 25.0695 7.55837 24.4586 7.31402 23.2368L5.33333 13.3334M26.6667 13.3334H24M26.6667 13.3334H28M5.33333 13.3334H4M5.33333 13.3334H8M8 13.3334H24M8 13.3334L12 5.33337M24 13.3334L20 5.33337M12 17.3334V21.3334M16 17.3334V21.3334M20 17.3334V21.3334" stroke="#AFC1CA" stroke-width="2.66667" stroke-linecap="round" stroke-linejoin="round"/>
</svg>
