<svg width="32" height="32" viewBox="0 0 32 32" fill="none" xmlns="http://www.w3.org/2000/svg">
<path d="M14.2439 3.60981C15.38 3.21397 16.6165 3.21388 17.7527 3.60955C18.4902 3.8664 19.0986 4.32089 19.6928 4.878C20.2675 5.41675 20.9171 6.13842 21.7077 7.01677L24 9.56339L26.6667 12.5259L28.991 15.1081C29.4836 15.6554 29.4393 16.4985 28.892 16.9911C28.3447 17.4838 27.5017 17.4395 27.009 16.8922L26.6667 16.5118V21.6552C26.6667 22.7285 26.6667 23.6143 26.6077 24.3359C26.5465 25.0854 26.4151 25.7743 26.0854 26.4214C25.574 27.425 24.7581 28.2409 23.7546 28.7522C23.1075 29.0819 22.4186 29.2133 21.6691 29.2746C20.9475 29.3335 20.0617 29.3335 18.9884 29.3335H18.6667V23.4667C18.6667 22.72 18.6667 22.3466 18.5213 22.0614C18.3935 21.8105 18.1895 21.6065 17.9386 21.4787C17.6534 21.3334 17.2801 21.3334 16.5333 21.3334H15.4667C14.7199 21.3334 14.3466 21.3334 14.0613 21.4787C13.8105 21.6065 13.6065 21.8105 13.4786 22.0614C13.3333 22.3466 13.3333 22.72 13.3333 23.4667V29.3335H13.0116C11.9383 29.3335 11.0525 29.3335 10.3309 29.2746C9.58144 29.2133 8.8925 29.0819 8.24539 28.7522C7.24185 28.2409 6.42596 27.425 5.91463 26.4214C5.58491 25.7743 5.45349 25.0854 5.39226 24.3359C5.3333 23.6143 5.33332 22.7285 5.33333 21.6552L5.33333 16.5117L4.99113 16.892C4.49855 17.4394 3.6555 17.4838 3.10812 16.9913C2.56074 16.4987 2.5163 15.6556 3.00888 15.1083L10.2894 7.01758C11.0799 6.13911 11.7293 5.41738 12.3039 4.87854C12.8981 4.32135 13.5064 3.86676 14.2439 3.60981Z" fill="#0C9CEB"/>
</svg>
