<svg width="17" height="18" viewBox="0 0 17 18" fill="none" xmlns="http://www.w3.org/2000/svg">
<path d="M8.5 2.2002C10.7 2.2002 11 2.2002 11.9 2.2002C12.7 2.2002 13.1 2.4002 13.4 2.5002C13.8 2.7002 14.1 2.8002 14.4 3.1002C14.7 3.4002 14.9 3.7002 15 4.1002C15.1 4.4002 15.2 4.8002 15.3 5.6002C15.3 6.5002 15.3 6.7002 15.3 9.0002C15.3 11.3002 15.3 11.5002 15.3 12.4002C15.3 13.2002 15.1 13.6002 15 13.9002C14.8 14.3002 14.7 14.6002 14.4 14.9002C14.1 15.2002 13.8 15.4002 13.4 15.5002C13.1 15.6002 12.7 15.7002 11.9 15.8002C11 15.8002 10.8 15.8002 8.5 15.8002C6.2 15.8002 6 15.8002 5.1 15.8002C4.3 15.8002 3.9 15.6002 3.6 15.5002C3.2 15.3002 2.9 15.2002 2.6 14.9002C2.3 14.6002 2.1 14.3002 2 13.9002C1.9 13.6002 1.8 13.2002 1.7 12.4002C1.7 11.5002 1.7 11.3002 1.7 9.0002C1.7 6.7002 1.7 6.5002 1.7 5.6002C1.7 4.8002 1.9 4.4002 2 4.1002C2.2 3.7002 2.3 3.4002 2.6 3.1002C2.9 2.8002 3.2 2.6002 3.6 2.5002C3.9 2.4002 4.3 2.3002 5.1 2.2002C6 2.2002 6.3 2.2002 8.5 2.2002ZM8.5 0.700195C6.2 0.700195 6 0.700195 5.1 0.700195C4.2 0.700195 3.6 0.900196 3.1 1.1002C2.6 1.3002 2.1 1.6002 1.6 2.1002C1.1 2.6002 0.900001 3.0002 0.600001 3.6002C0.400001 4.1002 0.300001 4.7002 0.200001 5.6002C0.200001 6.5002 0.200001 6.8002 0.200001 9.0002C0.200001 11.3002 0.200001 11.5002 0.200001 12.4002C0.200001 13.3002 0.400001 13.9002 0.600001 14.4002C0.800001 14.9002 1.1 15.4002 1.6 15.9002C2.1 16.4002 2.5 16.6002 3.1 16.9002C3.6 17.1002 4.2 17.2002 5.1 17.3002C6 17.3002 6.3 17.3002 8.5 17.3002C10.7 17.3002 11 17.3002 11.9 17.3002C12.8 17.3002 13.4 17.1002 13.9 16.9002C14.4 16.7002 14.9 16.4002 15.4 15.9002C15.9 15.4002 16.1 15.0002 16.4 14.4002C16.6 13.9002 16.7 13.3002 16.8 12.4002C16.8 11.5002 16.8 11.2002 16.8 9.0002C16.8 6.8002 16.8 6.5002 16.8 5.6002C16.8 4.7002 16.6 4.1002 16.4 3.6002C16.2 3.1002 15.9 2.6002 15.4 2.1002C14.9 1.6002 14.5 1.4002 13.9 1.1002C13.4 0.900196 12.8 0.800195 11.9 0.700195C11 0.700195 10.8 0.700195 8.5 0.700195Z" fill="#0B466F"/>
<path d="M8.5 4.7002C6.1 4.7002 4.2 6.6002 4.2 9.0002C4.2 11.4002 6.1 13.3002 8.5 13.3002C10.9 13.3002 12.8 11.4002 12.8 9.0002C12.8 6.6002 10.9 4.7002 8.5 4.7002ZM8.5 11.8002C7 11.8002 5.7 10.6002 5.7 9.0002C5.7 7.5002 6.9 6.2002 8.5 6.2002C10 6.2002 11.3 7.4002 11.3 9.0002C11.3 10.5002 10 11.8002 8.5 11.8002Z" fill="#0B466F"/>
<path d="M12.9 5.6002C13.4523 5.6002 13.9 5.15248 13.9 4.6002C13.9 4.04791 13.4523 3.6002 12.9 3.6002C12.3477 3.6002 11.9 4.04791 11.9 4.6002C11.9 5.15248 12.3477 5.6002 12.9 5.6002Z" fill="#0B466F"/>
</svg>
