<svg width="24" height="25" viewBox="0 0 24 25" fill="none" xmlns="http://www.w3.org/2000/svg">
<path d="M7 21.2354H17M6.2 17.2354H17.8C18.9201 17.2354 19.4802 17.2354 19.908 17.0174C20.2843 16.8256 20.5903 16.5197 20.782 16.1433C21 15.7155 21 15.1555 21 14.0354V6.43535C21 5.31525 21 4.75519 20.782 4.32737C20.5903 3.95105 20.2843 3.64509 19.908 3.45334C19.4802 3.23535 18.9201 3.23535 17.8 3.23535H6.2C5.0799 3.23535 4.51984 3.23535 4.09202 3.45334C3.71569 3.64509 3.40973 3.95105 3.21799 4.32737C3 4.75519 3 5.31525 3 6.43535V14.0354C3 15.1555 3 15.7155 3.21799 16.1433C3.40973 16.5197 3.71569 16.8256 4.09202 17.0174C4.51984 17.2354 5.07989 17.2354 6.2 17.2354Z" stroke="black" stroke-width="2" stroke-linecap="round" stroke-linejoin="round"/>
</svg>
