<svg width="17" height="20" viewBox="0 0 17 20" fill="none" xmlns="http://www.w3.org/2000/svg">
<path fill-rule="evenodd" clip-rule="evenodd" d="M6.3842 2.18584L13.2287 6.46366C13.9141 6.89201 14.4864 7.24967 14.9138 7.57448C15.349 7.90513 15.7575 8.2901 15.9839 8.81824C16.3073 9.57286 16.3073 10.4271 15.9839 11.1817C15.7575 11.7098 15.349 12.0948 14.9138 12.4254C14.4864 12.7502 13.9141 13.1079 13.2288 13.5362L6.38421 17.8141C5.62081 18.2912 4.9893 18.6859 4.46621 18.9498C3.94055 19.2149 3.37129 19.431 2.7596 19.3818C1.89751 19.3125 1.10728 18.8745 0.591599 18.1802C0.225703 17.6876 0.107258 17.0903 0.0534816 16.504C-3.14377e-05 15.9206 -1.68925e-05 15.1759 6.31237e-07 14.2757V5.72426C-1.68925e-05 4.82402 -3.14377e-05 4.07931 0.0534816 3.49591C0.107258 2.90963 0.225703 2.31236 0.591599 1.81971C1.10728 1.1254 1.89751 0.687408 2.7596 0.618103C3.37129 0.568928 3.94055 0.785036 4.46621 1.05016C4.9893 1.31399 5.62081 1.70869 6.3842 2.18584Z" fill="#0C9CEB"/>
</svg>
