<svg width="40" height="40" viewBox="0 0 40 40" fill="none" xmlns="http://www.w3.org/2000/svg">
<path fill-rule="evenodd" clip-rule="evenodd" d="M17.307 6.97642L28.7146 14.1061C29.8569 14.82 30.8107 15.4161 31.5231 15.9575C32.2483 16.5086 32.9292 17.1502 33.3065 18.0304C33.8455 19.2881 33.8455 20.7118 33.3065 21.9695C32.9292 22.8497 32.2483 23.4913 31.5231 24.0424C30.8107 24.5838 29.8569 25.1799 28.7146 25.8937L17.307 33.0235C16.0347 33.8187 14.9822 34.4766 14.1104 34.9163C13.2343 35.3582 12.2855 35.7183 11.266 35.6364C9.82921 35.5209 8.51215 34.7909 7.65269 33.6337C7.04286 32.8126 6.84545 31.8172 6.75582 30.84C6.66663 29.8677 6.66666 28.6265 6.66669 27.1261V12.8738C6.66666 11.3734 6.66663 10.1322 6.75582 9.15987C6.84545 8.18274 7.04286 7.1873 7.65269 6.36622C8.51215 5.20902 9.82921 4.47904 11.266 4.36353C12.2855 4.28157 13.2343 4.64175 14.1104 5.08363C14.9822 5.52334 16.0347 6.18118 17.307 6.97642Z" fill="#0C9CEB"/>
</svg>
