<svg width="40" height="40" viewBox="0 0 40 40" fill="none" xmlns="http://www.w3.org/2000/svg">
<rect width="40" height="40" rx="20" fill="white"/>
<path fill-rule="evenodd" clip-rule="evenodd" d="M18.3842 12.1858L25.2287 16.4637C25.9141 16.892 26.4864 17.2497 26.9138 17.5745C27.349 17.9051 27.7575 18.2901 27.9839 18.8182C28.3073 19.5729 28.3073 20.4271 27.9839 21.1817C27.7575 21.7098 27.349 22.0948 26.9138 22.4254C26.4864 22.7502 25.9141 23.1079 25.2288 23.5362L18.3842 27.8141C17.6208 28.2912 16.9893 28.6859 16.4662 28.9498C15.9405 29.2149 15.3713 29.431 14.7596 29.3818C13.8975 29.3125 13.1073 28.8745 12.5916 28.1802C12.2257 27.6876 12.1073 27.0903 12.0535 26.504C12 25.9206 12 25.1759 12 24.2757V15.7243C12 14.824 12 14.0793 12.0535 13.4959C12.1073 12.9096 12.2257 12.3124 12.5916 11.8197C13.1073 11.1254 13.8975 10.6874 14.7596 10.6181C15.3713 10.5689 15.9405 10.785 16.4662 11.0502C16.9893 11.314 17.6208 11.7087 18.3842 12.1858Z" fill="#0C9CEB"/>
</svg>
